HIERARCHY
ROOT locator2
{
  OFFSET 53.6172 30.1899 0.816905
  CHANNELS 6 Xposition Yposition Zposition Zrotation Xrotation Yrotation
  JOINT koshi
  {
    OFFSET 0 0 0
    CHANNELS 6 Xposition Yposition Zposition Zrotation Xrotation Yrotation
    JOINT sippo01
    {
      OFFSET 0 42.8363 -0.548134
      CHANNELS 6 Xposition Yposition Zposition Zrotation Xrotation Yrotation
      JOINT sippo02
      {
        OFFSET 0 44.0461 -3.28882
        CHANNELS 6 Xposition Yposition Zposition Zrotation Xrotation Yrotation
        JOINT sippo03
        {
          OFFSET 0 34.1929 -2.46662
          CHANNELS 6 Xposition Yposition Zposition Zrotation Xrotation Yrotation
          JOINT sippo04
          {
            OFFSET 0 30.0959 -1.75404
            CHANNELS 6 Xposition Yposition Zposition Zrotation Xrotation Yrotation
            JOINT sippo05
            {
              OFFSET 0 28.3637 -1.75404
              CHANNELS 6 Xposition Yposition Zposition Zrotation Xrotation Yrotation
              JOINT sippo06
              {
                OFFSET 0 31.6071 -3.2043
                CHANNELS 6 Xposition Yposition Zposition Zrotation Xrotation Yrotation
                End Site
                {
                  OFFSET 0 0 0
                }
              }
            }
          }
        }
      }
    }
    JOINT R_momo
    {
      OFFSET -27.891 13.5892 3.92723
      CHANNELS 6 Xposition Yposition Zposition Zrotation Xrotation Yrotation
      JOINT R_hiza
      {
        OFFSET 0 28.01 1.8232
        CHANNELS 6 Xposition Yposition Zposition Zrotation Xrotation Yrotation
        JOINT R_ashi
        {
          OFFSET 0 24.3992 -2.49174
          CHANNELS 6 Xposition Yposition Zposition Zrotation Xrotation Yrotation
          End Site
          {
            OFFSET 0 0 0
          }
        }
      }
    }
    JOINT L_momo
    {
      OFFSET 27.891 13.5892 3.92714
      CHANNELS 6 Xposition Yposition Zposition Zrotation Xrotation Yrotation
      JOINT L_hiza
      {
        OFFSET 0 28.0098 1.82319
        CHANNELS 6 Xposition Yposition Zposition Zrotation Xrotation Yrotation
        JOINT L_ashi
        {
          OFFSET 0 24.3992 -2.49171
          CHANNELS 6 Xposition Yposition Zposition Zrotation Xrotation Yrotation
          End Site
          {
            OFFSET 0 0 0
          }
        }
      }
    }
  }
  JOINT hara
  {
    OFFSET 0 2.15392 0
    CHANNELS 6 Xposition Yposition Zposition Zrotation Xrotation Yrotation
    JOINT mune
    {
      OFFSET 0 62.0609 0.472494
      CHANNELS 6 Xposition Yposition Zposition Zrotation Xrotation Yrotation
      JOINT R_kata
      {
        OFFSET 22.6695 9.65301 -5.3622
        CHANNELS 6 Xposition Yposition Zposition Zrotation Xrotation Yrotation
        JOINT R_hiji
        {
          OFFSET 0 25.813 1.69098
          CHANNELS 6 Xposition Yposition Zposition Zrotation Xrotation Yrotation
          JOINT R_te
          {
            OFFSET 0 28.5636 -0.966307
            CHANNELS 6 Xposition Yposition Zposition Zrotation Xrotation Yrotation
            End Site
            {
              OFFSET 0 0 0
            }
          }
        }
      }
      JOINT L_kata
      {
        OFFSET -22.6695 9.65298 -5.3622
        CHANNELS 6 Xposition Yposition Zposition Zrotation Xrotation Yrotation
        JOINT L_hiji
        {
          OFFSET 0 25.813 1.69102
          CHANNELS 6 Xposition Yposition Zposition Zrotation Xrotation Yrotation
          JOINT L_te
          {
            OFFSET 0 28.5636 -0.966295
            CHANNELS 6 Xposition Yposition Zposition Zrotation Xrotation Yrotation
            End Site
            {
              OFFSET 0 0 0
            }
          }
        }
      }
      JOINT kubi
      {
        OFFSET 0 23.1438 -0.944988
        CHANNELS 6 Xposition Yposition Zposition Zrotation Xrotation Yrotation
        JOINT atama
        {
          OFFSET 0 20.8625 4.12737
          CHANNELS 6 Xposition Yposition Zposition Zrotation Xrotation Yrotation
          JOINT ago
          {
            OFFSET 0 7.552 -7.58201
            CHANNELS 6 Xposition Yposition Zposition Zrotation Xrotation Yrotation
            End Site
            {
              OFFSET 0 0 0
            }
          }
        }
      }
    }
  }
}
MOTION
Frames:	4
Frame Time:	0.0333333
3.20065 30.2665 4.3371 -90 -3.50835e-015 -90 0 0 0 177.531 -3.32357 -0.00167662 -1.16229e-006 42.8363 -0.548138 -1.61443 -5.58186 7.32734 -7.8178e-007 44.0461 -3.28882 -7.35999 12.6973 1.83923 4.75885e-007 34.1929 -2.46661 -9.56979 8.92559 -2.05027 -3.67207e-006 30.0959 -1.75404 -7.71356 6.00801 -9.28926 -1.09935e-005 28.3637 -1.75404 -4.8054 7.02128 6.45101 1.5721e-005 31.6072 -3.2043 -1.43886 -10.1055 -18.2562 -27.891 13.5892 3.92723 122.355 -19.665 -44.5521 -4.00979e-006 28.01 1.8232 22.5967 -84.7538 2.28535 -4.02638e-006 24.3992 -2.49173 -157.656 63.9708 -170.841 27.891 13.5892 3.92714 -70.4741 -20.6629 59.1125 -1.76005e-006 28.0098 1.82319 -3.20375 -44.1238 22.8148 -1.05097e-005 24.3992 -2.49173 132.234 78.0146 -179.345 6.07673e-007 2.15392 -3.55271e-015 -2.23761 -5.57272 -2.09904 -3.63798e-012 62.0609 0.472492 -3.97569e-016 7.76503e-015 3.97569e-016 22.6695 9.653 -5.3622 -148.667 11.2043 33.0711 -3.8147e-006 25.813 1.69098 179.775 -62.3296 -179.982 1.32742e-008 28.5636 -0.966307 57.6515 16.6062 -96.2233 -22.6695 9.65299 -5.3622 130.15 1.98772 -58.9144 1.42109e-014 25.813 1.69101 -179.309 -88.0856 179.495 7.72504e-006 28.5636 -0.966304 -35.6092 26.2976 92.5745 -5.00133e-012 23.1438 -0.944992 -3.83108 6.55893 -14.9744 3.98614e-012 20.8625 4.12737 -2.43875 5.68812 -15.3593 2.749e-007 7.55202 -7.58201 -3.05196e-006 -6.76603 2.88529e-006 
1.95712 30.0898 4.87925 -90 -3.50835e-015 -90 0 0 0 177.936 -3.20528 0.0201052 -1.16229e-006 42.8363 -0.548138 -1.58674 -5.75443 7.39251 -7.81692e-007 44.0461 -3.28882 -7.8671 13.3797 1.83128 4.1107e-007 34.1929 -2.46661 -10.3597 8.66445 -3.07492 -3.58846e-006 30.0959 -1.75404 -8.73187 5.76352 -9.62248 -1.08822e-005 28.3637 -1.75404 -5.32281 6.62831 6.54662 1.58753e-005 31.6072 -3.2043 -1.73966 -9.10656 -18.3676 -27.891 13.5892 3.92723 125.262 -19.1322 -43.4457 -4.08593e-006 28.01 1.8232 33.4318 -86.5101 14.8973 -3.95673e-006 24.3992 -2.49173 -157.132 63.8137 -171.025 27.891 13.5892 3.92714 -73.5865 -19.9512 58.0381 -1.5788e-006 28.0098 1.82319 -3.23368 -45.9225 22.0675 -1.05545e-005 24.3992 -2.49173 129.715 78.6621 -177.12 6.07673e-007 2.15392 -3.55271e-015 -1.70956 -4.25756 -1.96331 -3.63798e-012 62.0609 0.472492 3.97569e-016 -6.7711e-016 -3.97569e-016 22.6695 9.653 -5.3622 -149.25 8.45296 34.0292 -3.8147e-006 25.813 1.69098 179.776 -63.144 179.412 1.04425e-008 28.5636 -0.966307 56.2317 17.2569 -98.5174 -22.6695 9.65299 -5.3622 129.38 -2.39167 -61.6092 2.13163e-014 25.813 1.69101 -178.122 -89.17 -178.194 7.71335e-006 28.5636 -0.966304 -34.0989 26.1135 96.5839 -5.00133e-012 23.1438 -0.944992 -5.15443 4.24356 -14.9796 3.98614e-012 20.8625 4.12737 -2.24688 3.57279 -15.8175 2.76907e-007 7.55202 -7.58201 -9.82825e-006 -1.0983 9.82603e-006 
0.711544 29.451 5.4267 -90 -3.50835e-015 -90 0 0 0 178.347 -3.08452 0.0383435 -1.16229e-006 42.8363 -0.548138 -1.55884 -5.92867 7.45848 -7.81683e-007 44.0461 -3.28882 -8.3842 14.0673 1.83645 3.45779e-007 34.1929 -2.46661 -11.1562 8.40035 -3.24083 -3.51759e-006 30.0959 -1.75404 -9.11817 5.52613 -10.0221 -1.08002e-005 28.3637 -1.75404 -5.83606 6.23149 6.63506 1.59922e-005 31.6072 -3.2043 -2.03697 -8.08164 -18.4679 -27.891 13.5892 3.92723 128.166 -18.3763 -42.4444 -4.1488e-006 28.01 1.8232 78.7548 -88.1347 62.0056 -3.86606e-006 24.3992 -2.49173 -156.616 63.6361 -171.194 27.891 13.5892 3.92714 -76.7531 -19.0933 57.6734 -1.37424e-006 28.0098 1.82319 -3.2683 -47.7238 20.6712 -1.06481e-005 24.3992 -2.49173 126.885 79.2874 -174.602 6.07673e-007 2.15392 -3.55271e-015 -1.17861 -2.92875 -1.84886 -3.63798e-012 62.0609 0.472492 5.96354e-016 2.20527e-015 1.98785e-016 22.6695 9.653 -5.3622 -150.367 5.2538 34.4474 -3.8147e-006 25.813 1.69098 179.768 -65.1736 178.79 7.57186e-009 28.5636 -0.966307 54.4239 17.0521 -100.858 -22.6695 9.65299 -5.3622 128.135 -7.16595 -63.6218 1.42109e-014 25.813 1.69101 -6.66695 -89.7327 -5.60458 7.70925e-006 28.5636 -0.966304 -32.5884 25.8823 101.103 -5.00222e-012 23.1438 -0.944992 -6.4838 1.90654 -15.0945 3.98614e-012 20.8625 4.12737 -1.93129 1.25961 -16.6365 2.8177e-007 7.55202 -7.58201 -1.00278e-005 2.4901 4.34141e-007 
0.503866 28.7931 5.96353 -90 -3.50835e-015 -90 0 0 0 178.749 -2.96651 0.0571951 -1.16229e-006 42.8363 -0.548138 -1.53145 -6.0995 7.52333 -7.81735e-007 44.0461 -3.28882 -8.89514 14.7386 1.8536 2.82119e-007 34.1929 -2.46661 -11.9358 8.14137 -3.41005 -3.44555e-006 30.0959 -1.75404 -9.49638 5.29377 -9.67196 -1.0731e-005 28.3637 -1.75404 -5.44463 5.85227 6.62375 1.60939e-005 31.6072 -3.2043 -1.79052 -5.4127 -18.4381 -27.891 13.5892 3.92723 129.002 -18.1131 -42.797 -4.13447e-006 28.01 1.8232 138.798 -87.3595 122.276 -3.79007e-006 24.3992 -2.49174 -157.445 61.8625 -169.86 27.891 13.5892 3.92714 -78.4982 -18.6682 58.5744 -1.24444e-006 28.0098 1.82319 -3.20359 -47.8756 19.4384 -1.06722e-005 24.3992 -2.49173 125.832 79.6134 -175.122 6.07673e-007 2.15392 3.55271e-015 -0.659792 -1.62453 -1.56643 -3.63798e-012 62.0609 0.472492 1.98785e-016 3.85766e-015 7.95139e-016 22.6695 9.653 -5.3622 -152.043 2.93347 34.1147 -3.8147e-006 25.813 1.69098 179.757 -67.1636 178.177 4.78369e-009 28.5636 -0.966307 53.2512 15.1052 -102.06 -22.6695 9.65299 -5.3622 128.647 -11.2125 -64.968 2.84217e-014 25.813 1.69101 -1.50825 -88.6607 0.666379 7.71272e-006 28.5636 -0.966304 -32.0242 23.9653 104.685 -5.00311e-012 23.1438 -0.944992 -7.09657 -1.08093 -15.3956 3.98348e-012 20.8625 4.12737 -1.5061 -1.50762 -17.6016 2.86891e-007 7.55202 -7.58201 -1.00242e-005 1.97338 3.43633e-007 
